<?xml version="1.0" encoding="UTF-8"?>
<svg version="1.1" xmlns="http://www.w3.org/2000/svg" width="1080" height="1100">
<path d="M0 0 C4.30015807 1.53426262 8.742994 2.6132359 13.15234375 3.7890625 C16.27299664 4.81420451 18.61345837 6.12567468 21.38671875 7.8515625 C22.97242816 8.46416566 24.5771024 9.03063797 26.19921875 9.5390625 C26.98941406 9.79042969 27.77960938 10.04179687 28.59375 10.30078125 C29.48126953 10.57341797 29.48126953 10.57341797 30.38671875 10.8515625 C30.38671875 11.5115625 30.38671875 12.1715625 30.38671875 12.8515625 C31.23363281 13.10421875 32.08054687 13.356875 32.953125 13.6171875 C36.63860432 14.94211522 39.94750181 16.64683959 43.32421875 18.6015625 C44.25053101 19.13499268 44.25053101 19.13499268 45.19555664 19.67919922 C49.72728961 22.34421993 53.59377673 25.24340483 57.38671875 28.8515625 C58.65142866 29.96273766 59.92229223 31.06694808 61.19921875 32.1640625 C61.76253906 32.65519531 62.32585937 33.14632812 62.90625 33.65234375 C64.39229423 34.94413105 64.39229423 34.94413105 66.38671875 35.8515625 C66.85078125 36.810625 66.85078125 36.810625 67.32421875 37.7890625 C68.34017797 40.17127743 68.34017797 40.17127743 71.38671875 41.8515625 C77.6842051 51.50770824 83.78053448 64.12921485 82.38671875 75.8515625 C81.52776366 79.50483986 80.37065807 83.03400367 79.15820312 86.58398438 C78.20286581 89.39195051 77.27167232 92.20758396 76.33984375 95.0234375 C74.36898476 100.97070651 72.38214104 106.91249447 70.38671875 112.8515625 C69.72671875 112.8515625 69.06671875 112.8515625 68.38671875 112.8515625 C68.28359375 113.6971875 68.18046875 114.5428125 68.07421875 115.4140625 C67.30383335 119.26598951 66.02397361 122.29231281 64.38671875 125.8515625 C63.72671875 125.8515625 63.06671875 125.8515625 62.38671875 125.8515625 C62.28359375 126.5528125 62.18046875 127.2540625 62.07421875 127.9765625 C61.29312872 131.24293897 59.96613132 133.8987477 58.38671875 136.8515625 C57.72671875 136.8515625 57.06671875 136.8515625 56.38671875 136.8515625 C56.09796875 137.7796875 55.80921875 138.7078125 55.51171875 139.6640625 C54.38671875 142.8515625 54.38671875 142.8515625 52.38671875 145.8515625 C51.72671875 145.8515625 51.06671875 145.8515625 50.38671875 145.8515625 C50.01546875 147.0271875 50.01546875 147.0271875 49.63671875 148.2265625 C48.17747372 151.29097707 47.33656919 151.46882011 44.38671875 152.8515625 C44.05671875 153.5115625 43.72671875 154.1715625 43.38671875 154.8515625 C42.11895419 157.38709162 40.9184881 157.70075825 38.38671875 158.8515625 C37.95617187 159.31046875 37.525625 159.769375 37.08203125 160.2421875 C30.63929228 166.35833601 21.55114098 167.53001754 13.05688477 167.37646484 C6.17468213 167.02438708 1.93318365 165.3980274 -2.98828125 160.4765625 C-6.51155045 154.78512763 -6.99861626 149.43286766 -6.98828125 142.9140625 C-6.98957031 142.06102539 -6.99085938 141.20798828 -6.9921875 140.32910156 C-6.82297461 129.66484367 -4.74600983 119.27130295 -2.61328125 108.8515625 C-1.95328125 108.8515625 -1.29328125 108.8515625 -0.61328125 108.8515625 C-0.55269531 108.05492187 -0.49210937 107.25828125 -0.4296875 106.4375 C-0.30400391 104.84808594 -0.30400391 104.84808594 -0.17578125 103.2265625 C-0.09457031 102.18242187 -0.01335937 101.13828125 0.0703125 100.0625 C0.38671875 96.8515625 0.38671875 96.8515625 0.91015625 94.10546875 C1.57942992 89.53575593 1.57098659 85.02635958 1.57421875 80.4140625 C1.58646484 79.49818359 1.59871094 78.58230469 1.61132812 77.63867188 C1.62277939 72.321467 1.26382013 67.84825941 -0.61328125 62.8515625 C-2.32830358 61.41033138 -2.32830358 61.41033138 -4.61328125 60.8515625 C-5.50015625 60.4803125 -6.38703125 60.1090625 -7.30078125 59.7265625 C-15.50055992 57.56058323 -21.95052216 59.30200154 -29.890625 61.9765625 C-32.61328125 62.8515625 -32.61328125 62.8515625 -34.61328125 62.8515625 C-34.61328125 63.5115625 -34.61328125 64.1715625 -34.61328125 64.8515625 C-35.18175781 65.14289063 -35.75023437 65.43421875 -36.3359375 65.734375 C-41.70198748 68.58312941 -46.19192149 71.69548433 -50.61328125 75.8515625 C-51.52078125 76.6765625 -52.42828125 77.5015625 -53.36328125 78.3515625 C-55.76085895 81.01553772 -57.07767794 83.63410795 -58.61328125 86.8515625 C-59.27328125 87.1815625 -59.93328125 87.5115625 -60.61328125 87.8515625 C-61.37343474 89.82509307 -62.04931139 91.83161404 -62.67578125 93.8515625 C-64.52237216 99.76065341 -64.52237216 99.76065341 -65.61328125 100.8515625 C-65.86943945 104.6569109 -65.79852908 108.47613825 -65.80078125 112.2890625 C-65.81302734 113.34544922 -65.82527344 114.40183594 -65.83789062 115.49023438 C-65.84868645 121.33077517 -65.43503144 126.69348953 -64.14575195 132.38842773 C-63.00324469 137.67350602 -62.44529324 143.07546351 -61.7578125 148.43554688 C-61.15380183 152.90067948 -60.42635582 156.70148307 -58.61328125 160.8515625 C-57.9363058 163.45257342 -57.29123258 166.04892884 -56.67578125 168.6640625 C-55.32268361 174.2513304 -53.73496135 179.50123876 -51.61328125 184.8515625 C-51.12337129 186.51510291 -50.64486445 188.18202981 -50.17578125 189.8515625 C-49.02403084 193.78071104 -47.55159771 197.25827364 -45.640625 200.87109375 C-44.57987651 202.9159587 -43.65293937 204.98760161 -42.73828125 207.1015625 C-39.83125961 213.71992006 -36.78673654 220.40227383 -32.9296875 226.5234375 C-31.61328125 228.8515625 -31.61328125 228.8515625 -31.61328125 231.8515625 C-30.95328125 231.8515625 -30.29328125 231.8515625 -29.61328125 231.8515625 C-28.93919817 233.11847757 -28.27427628 234.39026999 -27.61328125 235.6640625 C-27.24203125 236.37175781 -26.87078125 237.07945312 -26.48828125 237.80859375 C-25.61328125 239.8515625 -25.61328125 239.8515625 -25.61328125 242.8515625 C-24.62328125 243.1815625 -23.63328125 243.5115625 -22.61328125 243.8515625 C-19.61328125 249.07378472 -19.61328125 249.07378472 -19.61328125 251.8515625 C-18.95328125 251.8515625 -18.29328125 251.8515625 -17.61328125 251.8515625 C-16.421875 253.3984375 -16.421875 253.3984375 -15.05078125 255.6015625 C-11.76182176 260.73495089 -8.09889693 265.53103927 -4.37109375 270.34765625 C-2.61328125 272.8515625 -2.61328125 272.8515625 -2.61328125 274.8515625 C0.46112802 275.69844839 3.19927906 276.15700494 6.38671875 275.8515625 C8.84560774 274.26222985 10.72375555 272.517773 12.7578125 270.41796875 C14.38671875 268.8515625 14.38671875 268.8515625 16.38671875 268.8515625 C16.38671875 268.1915625 16.38671875 267.5315625 16.38671875 266.8515625 C18.109375 265.51953125 18.109375 265.51953125 20.44921875 264.0390625 C23.46732486 262.10462283 26.39626397 260.13025549 29.26171875 257.9765625 C32.38671875 255.8515625 32.38671875 255.8515625 35.38671875 255.8515625 C35.71671875 254.8615625 36.04671875 253.8715625 36.38671875 252.8515625 C38.42578125 251.38671875 38.42578125 251.38671875 41.01171875 249.9140625 C41.91148437 249.39714844 42.81125 248.88023437 43.73828125 248.34765625 C44.61226562 247.85394531 45.48625 247.36023438 46.38671875 246.8515625 C47.09570312 246.43003906 47.8046875 246.00851562 48.53515625 245.57421875 C53.12782195 242.8515625 53.12782195 242.8515625 55.38671875 242.8515625 C55.38671875 242.1915625 55.38671875 241.5315625 55.38671875 240.8515625 C56.67585362 240.18001317 57.96812079 239.51447391 59.26171875 238.8515625 C59.98101563 238.4803125 60.7003125 238.1090625 61.44140625 237.7265625 C63.38671875 236.8515625 63.38671875 236.8515625 65.38671875 236.8515625 C65.38671875 236.1915625 65.38671875 235.5315625 65.38671875 234.8515625 C66.42119141 234.28888672 66.42119141 234.28888672 67.4765625 233.71484375 C68.41628906 233.20308594 69.35601563 232.69132813 70.32421875 232.1640625 C71.32324219 231.62136719 72.32226562 231.07867187 73.3515625 230.51953125 C75.24908795 229.47674699 77.13864746 228.41917556 79.015625 227.33984375 C80.18931641 226.66501953 80.18931641 226.66501953 81.38671875 225.9765625 C82.08796875 225.56664062 82.78921875 225.15671875 83.51171875 224.734375 C85.38671875 223.8515625 85.38671875 223.8515625 88.38671875 223.8515625 C88.38671875 223.1915625 88.38671875 222.5315625 88.38671875 221.8515625 C110.04651256 210.8515625 110.04651256 210.8515625 113.38671875 210.8515625 C113.38671875 210.1915625 113.38671875 209.5315625 113.38671875 208.8515625 C114.20914062 208.54863281 115.0315625 208.24570312 115.87890625 207.93359375 C122.95240891 205.27898825 129.69947492 202.35855356 136.38671875 198.8515625 C141.91860978 195.9571675 147.25643085 193.44810198 153.2265625 191.60546875 C155.47176318 190.82188153 157.47412012 189.83837942 159.57421875 188.7265625 C162.81767252 187.02358677 165.70790199 186.21944418 169.38671875 185.8515625 C169.38671875 185.1915625 169.38671875 184.5315625 169.38671875 183.8515625 C170.43730469 183.46484375 171.48789062 183.078125 172.5703125 182.6796875 C179.30956308 180.18408512 185.97639615 177.6679045 192.50390625 174.65234375 C195.37650602 173.43059489 198.38652455 172.70067407 201.38671875 171.8515625 C202.77890625 171.14 202.77890625 171.14 204.19921875 170.4140625 C207.79472637 168.65155876 211.35724812 167.63219326 215.21484375 166.59765625 C217.5619109 165.96904767 217.5619109 165.96904767 219.38671875 163.8515625 C222.04868993 162.99342705 224.69122613 162.21216779 227.38671875 161.4765625 C233.19587639 159.84254666 238.73257824 157.99407422 244.29296875 155.6328125 C247.3208317 154.50301289 250.17608691 154.13074788 253.38671875 153.8515625 C253.38671875 153.1915625 253.38671875 152.5315625 253.38671875 151.8515625 C254.61648438 151.52542969 255.84625 151.19929687 257.11328125 150.86328125 C258.74618421 150.42220976 260.37899172 149.98078478 262.01171875 149.5390625 C262.81996094 149.32572266 263.62820313 149.11238281 264.4609375 148.89257812 C269.09369812 147.63080999 273.10114336 146.0542046 277.38671875 143.8515625 C279.40997044 143.22605339 281.45324953 142.66156977 283.51171875 142.1640625 C285.03152344 141.78701172 285.03152344 141.78701172 286.58203125 141.40234375 C289.38671875 140.8515625 289.38671875 140.8515625 293.38671875 140.8515625 C293.38671875 140.1915625 293.38671875 139.5315625 293.38671875 138.8515625 C294.65386719 138.52542969 295.92101562 138.19929687 297.2265625 137.86328125 C298.92582326 137.42203674 300.62503964 136.98062133 302.32421875 136.5390625 C303.15501953 136.32572266 303.98582031 136.11238281 304.84179688 135.89257812 C309.713853 134.6224312 314.47283818 133.17706013 319.23657227 131.55004883 C322.57673376 130.4649799 325.9704799 129.65741852 329.38671875 128.8515625 C333.75483675 127.7941302 338.0758993 126.70488807 342.32421875 125.2265625 C351.08511698 122.20670743 359.44470883 120.32304764 368.32421875 124.1015625 C371.63383893 126.90972507 373.21984596 129.57384047 373.78515625 133.90234375 C373.73765462 140.51298763 373.49821271 145.96526609 370.38671875 151.8515625 C369.938125 152.72167969 369.48953125 153.59179688 369.02734375 154.48828125 C365.21011513 161.38487213 365.21011513 161.38487213 362.22265625 163.078125 C357.74819099 164.29843371 353.23137831 164.63288959 348.625 165.0625 C344.51014565 165.48490983 341.20520248 166.17219591 337.38671875 167.8515625 C334.44251124 168.61769824 331.48523717 169.29511247 328.51953125 169.97265625 C325.30049934 170.79684596 325.30049934 170.79684596 322.0625 172.3125 C317.90567267 174.05297818 313.83623468 175.0729416 309.44921875 176.0390625 C308.66998047 176.21630859 307.89074219 176.39355469 307.08789062 176.57617188 C305.18883921 177.0072449 303.28795997 177.43025258 301.38671875 177.8515625 C301.38671875 178.5115625 301.38671875 179.1715625 301.38671875 179.8515625 C300.5875 180.15449219 299.78828125 180.45742188 298.96484375 180.76953125 C292.26201077 183.32636308 285.62402424 185.9793255 279.04296875 188.8359375 C276.48812015 189.81279138 274.07959305 190.40275012 271.38671875 190.8515625 C271.38671875 191.5115625 271.38671875 192.1715625 271.38671875 192.8515625 C270.67128906 193.13128906 269.95585938 193.41101563 269.21875 193.69921875 C261.93798782 196.62847753 255.10269839 200.04182887 248.23925781 203.83642578 C244.70374556 205.77378213 241.1376098 207.65363746 237.57421875 209.5390625 C236.88110596 209.90741211 236.18799316 210.27576172 235.47387695 210.65527344 C232.0613683 212.46321424 228.63604212 214.23424894 225.17578125 215.94921875 C221.4808952 217.78421117 217.92345795 219.80873522 214.3671875 221.8984375 C212.38671875 222.8515625 212.38671875 222.8515625 209.38671875 222.8515625 C209.38671875 223.5115625 209.38671875 224.1715625 209.38671875 224.8515625 C208.17048828 225.50511719 208.17048828 225.50511719 206.9296875 226.171875 C203.99865591 227.74828547 201.06873419 229.32671733 198.13964844 230.90673828 C196.5692069 231.7532019 194.99757175 232.59745014 193.42578125 233.44140625 C188.17420557 236.27785902 183.03257832 239.24213837 177.93359375 242.34375 C175.20337707 243.96010528 172.43090339 245.47374428 169.63671875 246.9765625 C166.6270073 248.59619536 163.7058706 250.23112918 160.88671875 252.1640625 C158.38671875 253.8515625 158.38671875 253.8515625 155.38671875 254.8515625 C154.95359375 255.3053125 154.52046875 255.7590625 154.07421875 256.2265625 C150.9839149 259.20241065 147.66997204 260.8515625 143.38671875 260.8515625 C143.05671875 261.8415625 142.72671875 262.8315625 142.38671875 263.8515625 C140.8828125 264.88671875 140.8828125 264.88671875 138.82421875 265.9140625 C133.3576105 268.78844039 128.18302044 272.06559273 122.97241211 275.37329102 C122.30862549 275.79280029 121.64483887 276.21230957 120.9609375 276.64453125 C120.36885498 277.0211792 119.77677246 277.39782715 119.16674805 277.78588867 C117.38671875 278.8515625 117.38671875 278.8515625 115.22583008 279.86450195 C113.21392064 280.71665271 113.21392064 280.71665271 112.38671875 282.8515625 C110.390625 283.921875 110.390625 283.921875 107.94921875 284.9765625 C106.74458984 285.50636719 106.74458984 285.50636719 105.515625 286.046875 C103.38671875 286.8515625 103.38671875 286.8515625 101.38671875 286.8515625 C101.05671875 287.8415625 100.72671875 288.8315625 100.38671875 289.8515625 C98.79693598 290.83249229 97.19652801 291.79976679 95.55078125 292.68359375 C93.09909672 294.00679533 90.71344499 295.41874858 88.32421875 296.8515625 C87.47214844 297.36203125 86.62007812 297.8725 85.7421875 298.3984375 C83.83628301 299.57421938 81.97794009 300.8268708 80.13671875 302.1015625 C77.28280221 303.91769121 74.62877806 304.92525984 71.38671875 305.8515625 C71.38671875 306.5115625 71.38671875 307.1715625 71.38671875 307.8515625 C69.375 309.25390625 69.375 309.25390625 66.69921875 310.7890625 C65.39404297 311.54509766 65.39404297 311.54509766 64.0625 312.31640625 C63.17949219 312.82300781 62.29648437 313.32960938 61.38671875 313.8515625 C58.66862717 315.46153994 56.0161538 317.0986058 53.38671875 318.8515625 C52.39671875 318.8515625 51.40671875 318.8515625 50.38671875 318.8515625 C50.05671875 319.8415625 49.72671875 320.8315625 49.38671875 321.8515625 C47.83618164 323.01831055 47.83618164 323.01831055 45.859375 324.11328125 C45.14974609 324.50966797 44.44011719 324.90605469 43.70898438 325.31445312 C42.96326172 325.71857422 42.21753906 326.12269531 41.44921875 326.5390625 C40.70736328 326.95478516 39.96550781 327.37050781 39.20117188 327.79882812 C33.67216364 330.8515625 33.67216364 330.8515625 31.38671875 330.8515625 C32.96003598 334.60483652 34.58447057 338.3101414 36.359375 341.97265625 C36.70162109 342.68099609 37.04386719 343.38933594 37.39648438 344.11914062 C38.09752119 345.56413487 38.80324735 347.0068636 39.51367188 348.44726562 C42.41348607 354.48260671 44.38671875 360.05885586 44.38671875 366.8515625 C45.04671875 366.8515625 45.70671875 366.8515625 46.38671875 366.8515625 C47.04012883 370.14177061 47.68300396 373.43395783 48.32421875 376.7265625 C48.50662109 377.644375 48.68902344 378.5621875 48.87695312 379.5078125 C49.93818931 384.98765024 50.71582555 390.39062537 51.14282227 395.95751953 C51.1917635 397.8602764 51.1917635 397.8602764 52.38671875 398.8515625 C53.64148128 406.27410143 53.53900009 413.84919358 53.51171875 421.3515625 C53.51558594 422.41503906 53.51945312 423.47851562 53.5234375 424.57421875 C53.50115172 442.73712953 53.50115172 442.73712953 51.38671875 444.8515625 C51.11269246 446.43671935 50.89541392 448.03177206 50.703125 449.62890625 C50.58001953 450.61826172 50.45691406 451.60761719 50.33007812 452.62695312 C50.20439453 453.67044922 50.07871094 454.71394531 49.94921875 455.7890625 C49.0517611 463.22039173 47.97431186 470.53363969 46.38671875 477.8515625 C45.72671875 477.8515625 45.06671875 477.8515625 44.38671875 477.8515625 C44.34933594 478.44582031 44.31195312 479.04007813 44.2734375 479.65234375 C43.53980418 488.90187756 41.18434665 497.31342098 37.6171875 505.85546875 C36.62563294 508.26982542 35.67724547 510.68965158 34.75 513.12890625 C31.90924679 520.59036841 29.09241347 527.9438509 25.33203125 535.00390625 C24.25604719 536.99260867 24.25604719 536.99260867 23.38671875 539.8515625 C22.72671875 539.8515625 22.06671875 539.8515625 21.38671875 539.8515625 C21.18046875 540.6353125 20.97421875 541.4190625 20.76171875 542.2265625 C19.20864286 546.32103531 17.13358012 549.77784999 14.82421875 553.484375 C13.55929697 555.56737119 12.43921611 557.65548628 11.38671875 559.8515625 C10.72671875 559.8515625 10.06671875 559.8515625 9.38671875 559.8515625 C9.01546875 561.13933594 9.01546875 561.13933594 8.63671875 562.453125 C7.28822974 566.11932949 5.56200095 568.98763129 3.38671875 572.2265625 C2.68546875 573.28617188 1.98421875 574.34578125 1.26171875 575.4375 C0.64296875 576.23414063 0.02421875 577.03078125 -0.61328125 577.8515625 C-1.27328125 577.8515625 -1.93328125 577.8515625 -2.61328125 577.8515625 C-2.84015625 578.7384375 -3.06703125 579.6253125 -3.30078125 580.5390625 C-4.83850237 584.41997771 -6.59865401 585.96800601 -9.61328125 588.8515625 C-10.96455006 590.50372113 -12.29637502 592.17188588 -13.61328125 593.8515625 C-16.43385634 597.42358537 -19.30132927 600.71863495 -22.61328125 603.8515625 C-23.43828125 604.6971875 -24.26328125 605.5428125 -25.11328125 606.4140625 C-27.50506528 608.74605193 -30.00722464 610.76671721 -32.61328125 612.8515625 C-35.06431535 615.24132075 -37.44843921 617.67730091 -39.80078125 620.1640625 C-50.42874936 630.31967648 -50.42874936 630.31967648 -54.859375 631.3984375 C-55.72755859 631.62273437 -55.72755859 631.62273437 -56.61328125 631.8515625 C-56.94328125 632.8415625 -57.27328125 633.8315625 -57.61328125 634.8515625 C-59.46875 636.0625 -59.46875 636.0625 -61.80078125 637.2265625 C-66.55131536 639.73399863 -70.37479911 642.51981028 -74.11328125 646.4140625 C-76.3700298 648.57677986 -78.99667578 650.16342994 -81.61328125 651.8515625 C-83.17847101 652.86826696 -84.74084128 653.88932145 -86.30078125 654.9140625 C-87.04714844 655.40003906 -87.79351562 655.88601563 -88.5625 656.38671875 C-90.46707567 657.74712994 -91.98483336 659.18183001 -93.61328125 660.8515625 C-98.05772569 663.8515625 -98.05772569 663.8515625 -101.61328125 663.8515625 C-101.61328125 664.5115625 -101.61328125 665.1715625 -101.61328125 665.8515625 C-106.67701793 668.74147283 -111.79880244 671.50619075 -116.98828125 674.1640625 C-117.98601562 674.67582031 -118.98375 675.18757812 -120.01171875 675.71484375 C-122.61328125 676.8515625 -122.61328125 676.8515625 -125.61328125 676.8515625 C-125.61328125 677.5115625 -125.61328125 678.1715625 -125.61328125 678.8515625 C-126.45890625 679.16609375 -127.30453125 679.480625 -128.17578125 679.8046875 C-135.53826248 682.53504215 -135.53826248 682.53504215 -142.61328125 685.9140625 C-147.98517804 688.71239367 -153.81701868 690.17894511 -159.61328125 691.8515625 C-160.84691406 692.22796875 -162.08054687 692.604375 -163.3515625 692.9921875 C-165.18267578 693.54132813 -165.18267578 693.54132813 -167.05078125 694.1015625 C-168.16324219 694.43671875 -169.27570313 694.771875 -170.421875 695.1171875 C-173.60299512 695.84919556 -176.36214006 695.9888656 -179.61328125 695.8515625 C-179.61328125 696.5115625 -179.61328125 697.1715625 -179.61328125 697.8515625 C-201.14145031 703.04324314 -220.04001199 703.58431937 -241.61328125 697.8515625 C-241.61328125 697.1915625 -241.61328125 696.5315625 -241.61328125 695.8515625 C-242.50466797 695.79548828 -242.50466797 695.79548828 -243.4140625 695.73828125 C-252.7248489 694.99978964 -261.10939554 692.71696509 -269.61328125 688.8515625 C-271.21695671 688.24609319 -272.82116675 687.64203876 -274.42578125 687.0390625 C-279.86801882 684.86546081 -284.707215 682.03860399 -289.61328125 678.8515625 C-290.93779297 677.99498047 -290.93779297 677.99498047 -292.2890625 677.12109375 C-297.26751356 673.77999992 -301.03659291 670.65454399 -304.61328125 665.8515625 C-305.88171875 664.4903125 -305.88171875 664.4903125 -307.17578125 663.1015625 C-310.44418557 659.22484317 -311.88822158 654.55319572 -313.61328125 649.8515625 C-313.94328125 649.1915625 -314.27328125 648.5315625 -314.61328125 647.8515625 C-317.57454362 627.45175506 -317.07077633 607.01430238 -304.8828125 589.796875 C-303.44766624 587.7774768 -303.44766624 587.7774768 -302.61328125 584.8515625 C-301.95328125 584.8515625 -301.29328125 584.8515625 -300.61328125 584.8515625 C-300.24203125 583.4284375 -300.24203125 583.4284375 -299.86328125 581.9765625 C-298.41998937 578.36833279 -297.87591324 578.4302554 -294.61328125 576.8515625 C-294.50628906 576.13871094 -294.39929688 575.42585937 -294.2890625 574.69140625 C-293.38861556 570.90744715 -291.26977726 568.42763196 -288.86328125 565.4765625 C-287.95085134 564.32889676 -287.03938328 563.18046563 -286.12890625 562.03125 C-285.69255859 561.48436523 -285.25621094 560.93748047 -284.80664062 560.37402344 C-283.33630133 558.49819778 -281.96507861 556.56411168 -280.61328125 554.6015625 C-278.61328125 551.8515625 -278.61328125 551.8515625 -276.61328125 550.8515625 C-276.13890625 550.0471875 -275.66453125 549.2428125 -275.17578125 548.4140625 C-273.61328125 545.8515625 -273.61328125 545.8515625 -270.61328125 543.8515625 C-270.11828125 543.0059375 -269.62328125 542.1603125 -269.11328125 541.2890625 C-267.61328125 538.8515625 -267.61328125 538.8515625 -264.61328125 537.8515625 C-264.25915781 536.52359959 -263.92806571 535.18939643 -263.61328125 533.8515625 C-262.17578125 532.1015625 -262.17578125 532.1015625 -260.61328125 530.8515625 C-259.95328125 530.8515625 -259.29328125 530.8515625 -258.61328125 530.8515625 C-258.53078125 530.2328125 -258.44828125 529.6140625 -258.36328125 528.9765625 C-257.61328125 526.8515625 -257.61328125 526.8515625 -255.67578125 525.9140625 C-253.35795161 525.00507293 -253.35795161 525.00507293 -252.61328125 522.3515625 C-251.39079053 519.29533569 -250.48136577 519.19597712 -247.61328125 517.8515625 C-247.28328125 517.1915625 -246.95328125 516.5315625 -246.61328125 515.8515625 C-245.61328125 513.8515625 -245.61328125 513.8515625 -243.55078125 512.8515625 C-242.91140625 512.5215625 -242.27203125 512.1915625 -241.61328125 511.8515625 C-241.47889648 511.25206787 -241.34451172 510.65257324 -241.20605469 510.03491211 C-240.45024499 507.25105457 -239.18282202 505.99172677 -237.19140625 503.91796875 C-236.4953125 503.18642578 -235.79921875 502.45488281 -235.08203125 501.70117188 C-233.98375 500.56905273 -233.98375 500.56905273 -232.86328125 499.4140625 C-232.1465625 498.66318359 -231.42984375 497.91230469 -230.69140625 497.13867188 C-228.67594541 495.03244119 -226.64577679 492.94133363 -224.61328125 490.8515625 C-224.09830078 490.30741699 -223.58332031 489.76327148 -223.05273438 489.20263672 C-221.94451869 488.04763513 -220.78454683 486.9425747 -219.61328125 485.8515625 C-218.95328125 485.8515625 -218.29328125 485.8515625 -217.61328125 485.8515625 C-217.53078125 485.2328125 -217.44828125 484.6140625 -217.36328125 483.9765625 C-216.37502683 481.17650831 -215.2096814 481.11042318 -212.61328125 479.8515625 C-212.28328125 479.1915625 -211.95328125 478.5315625 -211.61328125 477.8515625 C-210.34905361 475.32310722 -209.08482597 475.08733486 -206.61328125 473.8515625 C-205.44661458 471.93489583 -205.44661458 471.93489583 -204.61328125 469.8515625 C-203.95328125 468.8615625 -203.29328125 467.8715625 -202.61328125 466.8515625 C-201.95328125 466.8515625 -201.29328125 466.8515625 -200.61328125 466.8515625 C-200.36578125 466.2328125 -200.11828125 465.6140625 -199.86328125 464.9765625 C-198.37587756 462.44797623 -197.17650116 462.13317246 -194.61328125 460.8515625 C-193.928414 459.52748581 -193.26457922 458.19247009 -192.61328125 456.8515625 C-190.22937991 454.27437186 -187.81845914 452.01170134 -185.05078125 449.8515625 C-182.55888302 447.9545392 -182.55888302 447.9545392 -180.80078125 445.5390625 C-178.3167156 442.48721041 -175.55032944 440.10117523 -172.5703125 437.546875 C-169.27363334 434.6910691 -166.29707664 431.72767535 -163.61328125 428.2890625 C-161.49449518 425.70679197 -159.24125203 423.90266164 -156.61328125 421.8515625 C-154.35739943 419.6395229 -152.14170191 417.39079229 -149.93041992 415.13427734 C-148.09874237 413.26603092 -146.26235057 411.40249909 -144.42578125 409.5390625 C-143.79736328 408.89388672 -143.16894531 408.24871094 -142.52148438 407.58398438 C-141.91884766 406.97490234 -141.31621094 406.36582031 -140.6953125 405.73828125 C-140.15108643 405.18358154 -139.60686035 404.62888184 -139.04614258 404.05737305 C-137.61328125 402.8515625 -137.61328125 402.8515625 -135.61328125 402.8515625 C-135.61328125 402.1915625 -135.61328125 401.5315625 -135.61328125 400.8515625 C-134.68515625 400.2534375 -133.75703125 399.6553125 -132.80078125 399.0390625 C-129.49385186 396.76960116 -128.52857613 395.26578381 -126.61328125 391.8515625 C-123.52142207 388.43424446 -120.53228098 386.20296234 -116.61328125 383.8515625 C-114.28333911 381.64424889 -112.07873131 379.34748221 -109.8828125 377.0078125 C-109.27824219 376.37875 -108.67367187 375.7496875 -108.05078125 375.1015625 C-107.49261719 374.50859375 -106.93445313 373.915625 -106.359375 373.3046875 C-104.4257427 371.69549015 -103.02699872 371.39758315 -100.61328125 370.8515625 C-99.92957675 369.52688504 -99.26363939 368.19292617 -98.61328125 366.8515625 C-97.27994792 366.18489583 -95.94661458 365.51822917 -94.61328125 364.8515625 C-93.928414 363.52748581 -93.26457922 362.19247009 -92.61328125 360.8515625 C-89.28227994 357.15044994 -85.7353709 354.59962227 -81.61328125 351.8515625 C-79.92394203 350.2078811 -78.26068201 348.5372749 -76.61328125 346.8515625 C-75.06284096 345.40106348 -73.49940665 343.96437496 -71.92578125 342.5390625 C-71.15878906 341.84167969 -70.39179688 341.14429688 -69.6015625 340.42578125 C-67.61328125 338.8515625 -67.61328125 338.8515625 -65.61328125 338.8515625 C-65.32453125 338.2328125 -65.03578125 337.6140625 -64.73828125 336.9765625 C-63.61328125 334.8515625 -63.61328125 334.8515625 -61.61328125 332.8515625 C-60.62328125 332.8515625 -59.63328125 332.8515625 -58.61328125 332.8515625 C-58.34515625 332.0678125 -58.07703125 331.2840625 -57.80078125 330.4765625 C-56.61328125 327.8515625 -56.61328125 327.8515625 -53.61328125 325.8515625 C-52.36132715 321.65383406 -51.82829306 319.37724487 -53.859375 315.4296875 C-54.92255213 313.8693412 -56.02448315 312.33451814 -57.16796875 310.83203125 C-58.61328125 308.8515625 -58.61328125 308.8515625 -59.61328125 305.8515625 C-60.25265625 305.2534375 -60.89203125 304.6553125 -61.55078125 304.0390625 C-63.9786423 301.46405835 -64.6913639 299.23192613 -65.61328125 295.8515625 C-66.27328125 295.8515625 -66.93328125 295.8515625 -67.61328125 295.8515625 C-71.61328125 289.2265625 -71.61328125 289.2265625 -71.61328125 285.8515625 C-72.60328125 285.5215625 -73.59328125 285.1915625 -74.61328125 284.8515625 C-76.01663636 282.66138904 -77.26883533 280.51510369 -78.48828125 278.2265625 C-80.66556065 274.25434299 -82.79390203 270.39792189 -85.55078125 266.7890625 C-87.52747322 263.97377394 -88.30536157 262.23867894 -88.61328125 258.8515625 C-89.27328125 258.8515625 -89.93328125 258.8515625 -90.61328125 258.8515625 C-91.28736433 257.58464743 -91.95228622 256.31285501 -92.61328125 255.0390625 C-92.98453125 254.33136719 -93.35578125 253.62367188 -93.73828125 252.89453125 C-94.61328125 250.8515625 -94.61328125 250.8515625 -94.61328125 247.8515625 C-95.27328125 247.8515625 -95.93328125 247.8515625 -96.61328125 247.8515625 C-96.91621094 247.23410156 -97.21914063 246.61664063 -97.53125 245.98046875 C-100.09287524 240.80204481 -102.75971638 235.73868324 -105.6953125 230.76171875 C-106.61328125 228.8515625 -106.61328125 228.8515625 -106.61328125 225.8515625 C-107.27328125 225.8515625 -107.93328125 225.8515625 -108.61328125 225.8515625 C-108.9278125 224.99433594 -109.24234375 224.13710938 -109.56640625 223.25390625 C-112.18469145 216.00726418 -112.18469145 216.00726418 -115.67578125 209.1640625 C-118.17128572 204.89755485 -119.84362064 200.45544517 -121.61328125 195.8515625 C-122.27814009 194.20499804 -122.94479771 192.55915872 -123.61328125 190.9140625 C-128.93458899 177.53832397 -133.84873269 163.77768999 -136.25390625 149.5390625 C-136.45904258 147.82436353 -136.45904258 147.82436353 -137.61328125 146.8515625 C-142.48180957 126.76888317 -143.63391162 99.13591366 -135.61328125 79.8515625 C-134.98584978 77.50348929 -134.38382975 75.14854814 -133.80078125 72.7890625 C-130.84298774 61.33146029 -126.41790214 46.0740597 -117.61328125 37.8515625 C-117.09765625 36.9853125 -116.58203125 36.1190625 -116.05078125 35.2265625 C-114.61328125 32.8515625 -114.61328125 32.8515625 -112.61328125 31.8515625 C-112.13890625 31.0265625 -111.66453125 30.2015625 -111.17578125 29.3515625 C-109.61328125 26.8515625 -109.61328125 26.8515625 -106.61328125 25.8515625 C-106.30390625 25.2121875 -105.99453125 24.5728125 -105.67578125 23.9140625 C-104.35543907 21.35104532 -103.13181385 21.1108288 -100.61328125 19.8515625 C-100.30390625 19.2121875 -99.99453125 18.5728125 -99.67578125 17.9140625 C-98.22696809 15.10166048 -96.39822332 14.24403354 -93.61328125 12.8515625 C-92.95328125 12.8515625 -92.29328125 12.8515625 -91.61328125 12.8515625 C-91.61328125 12.1915625 -91.61328125 11.5315625 -91.61328125 10.8515625 C-89.18617127 9.63800751 -86.75863773 8.42548423 -84.328125 7.21875 C-82.72605873 6.41195403 -81.13123761 5.58996007 -79.5546875 4.734375 C-74.89896442 2.23712644 -70.26595441 0.80302998 -65.1484375 -0.4921875 C-62.47946136 -1.14435693 -62.47946136 -1.14435693 -59.42578125 -2.2734375 C-42.43421899 -7.55970131 -16.5857771 -6.25520736 0 0 Z M-14.61328125 375.8515625 C-15.17015625 377.058125 -15.17015625 377.058125 -15.73828125 378.2890625 C-19.71110783 386.53119526 -26.16944049 392.65160835 -33.35546875 398.1015625 C-35.80058076 399.92101765 -35.80058076 399.92101765 -38.42578125 402.6640625 C-40.61328125 404.8515625 -40.61328125 404.8515625 -42.87109375 406.140625 C-46.77887521 408.57881343 -49.93062271 411.7429806 -53.24023438 414.91210938 C-55.90039392 417.41638696 -58.28534989 419.35144464 -61.61328125 420.8515625 C-64.14740712 423.19562893 -66.38097426 425.54829982 -68.48046875 428.2890625 C-70.58007235 430.81166316 -72.62926885 432.5636674 -75.23828125 434.5390625 C-80.78393285 438.96069612 -85.70691617 443.8584924 -90.67578125 448.9140625 C-96.12747359 454.45645676 -101.50313238 459.69520839 -107.70703125 464.390625 C-110.24223881 466.33359145 -112.42101735 468.53402638 -114.61328125 470.8515625 C-115.47953125 471.6765625 -116.34578125 472.5015625 -117.23828125 473.3515625 C-119.65784138 475.70180117 -119.65784138 475.70180117 -121.05078125 478.3515625 C-122.52452442 480.70955158 -123.66909768 481.84068844 -125.80078125 483.5390625 C-126.72890625 484.3021875 -127.65703125 485.0653125 -128.61328125 485.8515625 C-128.61328125 486.5115625 -128.61328125 487.1715625 -128.61328125 487.8515625 C-129.17015625 488.0784375 -129.72703125 488.3053125 -130.30078125 488.5390625 C-134.18141389 490.74158373 -136.8886115 493.92307939 -139.61328125 497.4140625 C-141.61328125 499.8515625 -141.61328125 499.8515625 -144.36328125 502.0390625 C-145.10578125 502.6371875 -145.84828125 503.2353125 -146.61328125 503.8515625 C-146.61328125 504.5115625 -146.61328125 505.1715625 -146.61328125 505.8515625 C-147.60328125 506.1815625 -148.59328125 506.5115625 -149.61328125 506.8515625 C-151.22916508 508.36952722 -151.22916508 508.36952722 -152.80078125 510.2890625 C-153.41050781 511.00449219 -154.02023437 511.71992187 -154.6484375 512.45703125 C-157.36973352 515.77344171 -160.00916822 519.15159781 -162.62109375 522.5546875 C-164.61328125 524.8515625 -164.61328125 524.8515625 -167.13671875 526.8359375 C-169.75927809 528.97038642 -171.28491102 531.02276327 -173.11328125 533.8515625 C-175.62978544 537.57991903 -177.95812599 540.18428704 -181.61328125 542.8515625 C-183.76650627 545.32143825 -185.52880948 547.70627105 -187.17578125 550.5390625 C-188.61328125 552.8515625 -188.61328125 552.8515625 -191.61328125 554.8515625 C-192.62679789 556.51004427 -193.6244892 558.17822211 -194.61328125 559.8515625 C-198.87827158 565.48405766 -198.87827158 565.48405766 -201.61328125 566.8515625 C-202.00515625 567.6765625 -202.39703125 568.5015625 -202.80078125 569.3515625 C-204.84721205 573.30329094 -207.37203026 576.47090912 -210.1875 579.8984375 C-211.80981842 581.71776305 -211.80981842 581.71776305 -211.61328125 583.8515625 C-212.27328125 583.8515625 -212.93328125 583.8515625 -213.61328125 583.8515625 C-214.27328125 584.9653125 -214.93328125 586.0790625 -215.61328125 587.2265625 C-215.98453125 587.85304688 -216.35578125 588.47953125 -216.73828125 589.125 C-217.76396473 590.82628917 -217.76396473 590.82628917 -217.61328125 592.8515625 C-218.60328125 593.1815625 -219.59328125 593.5115625 -220.61328125 593.8515625 C-221.9363633 595.66646775 -221.9363633 595.66646775 -223.05078125 597.9140625 C-223.47617187 598.72101563 -223.9015625 599.52796875 -224.33984375 600.359375 C-224.76007813 601.18179688 -225.1803125 602.00421875 -225.61328125 602.8515625 C-226.01289063 603.61210938 -226.4125 604.37265625 -226.82421875 605.15625 C-228.8838961 608.81248116 -228.8838961 608.81248116 -229.61328125 612.8515625 C-230.27328125 612.8515625 -230.93328125 612.8515625 -231.61328125 612.8515625 C-234.48607475 619.22166983 -237.0303293 625.72583517 -235.61328125 632.8515625 C-233.39694631 636.77807976 -230.79728375 639.28530044 -226.73828125 641.2265625 C-223.03377002 641.96746475 -219.37758 642.55878371 -215.61328125 642.8515625 C-214.63101563 642.93277344 -214.63101563 642.93277344 -213.62890625 643.015625 C-203.68779061 643.42672377 -193.60241023 640.91731695 -184.61328125 636.8515625 C-183.13599425 636.28414431 -181.65697304 635.72120804 -180.17578125 635.1640625 C-169.58976821 630.93611217 -159.45618054 625.67054849 -149.953125 619.3828125 C-147.87821092 618.02493885 -145.78581873 616.79397392 -143.61328125 615.6015625 C-140.75516595 614.11573254 -140.75516595 614.11573254 -139.35546875 612.55078125 C-136.73870271 609.99855428 -133.72535814 608.00377429 -130.73828125 605.9140625 C-125.23941145 602.05327707 -119.9417537 598.08438386 -114.92578125 593.6015625 C-111.05033789 590.17469987 -107.01324284 586.9929343 -102.91015625 583.84375 C-100.45364314 581.71310088 -98.62096839 579.40241149 -96.61328125 576.8515625 C-95.33272174 575.64992416 -94.02067172 574.48073786 -92.67578125 573.3515625 C-88.67879134 569.92557115 -84.91091735 566.47360763 -81.61328125 562.3515625 C-79.61328125 559.8515625 -79.61328125 559.8515625 -76.92578125 557.2265625 C-74.42031331 554.99807404 -74.42031331 554.99807404 -73.61328125 551.8515625 C-72.97390625 551.5421875 -72.33453125 551.2328125 -71.67578125 550.9140625 C-69.0777616 549.57568874 -68.87232036 548.44370184 -67.61328125 545.8515625 C-65.94661458 544.18489583 -64.27994792 542.51822917 -62.61328125 540.8515625 C-62.28328125 539.8615625 -61.95328125 538.8715625 -61.61328125 537.8515625 C-60.95328125 537.8515625 -60.29328125 537.8515625 -59.61328125 537.8515625 C-58.2605001 535.86466519 -56.9275982 533.86411032 -55.61328125 531.8515625 C-54.95328125 531.5215625 -54.29328125 531.1915625 -53.61328125 530.8515625 C-52.62493496 529.13842893 -51.6404597 527.42270966 -50.69140625 525.6875 C-49.61328125 523.8515625 -49.61328125 523.8515625 -47.48828125 521.2265625 C-45.50024717 518.94252208 -45.50024717 518.94252208 -44.55078125 516.1640625 C-43.61328125 513.8515625 -43.61328125 513.8515625 -40.61328125 511.8515625 C-39.55602872 509.88122824 -38.56893113 507.87312954 -37.61328125 505.8515625 C-36.29300817 503.49251601 -34.95180213 501.14669607 -33.6015625 498.8046875 C-32.46278412 496.91895834 -32.46278412 496.91895834 -32.61328125 494.8515625 C-31.62328125 494.5215625 -30.63328125 494.1915625 -29.61328125 493.8515625 C-25.35149315 487.01494409 -20.61328125 478.0940671 -20.61328125 469.8515625 C-19.95328125 469.8515625 -19.29328125 469.8515625 -18.61328125 469.8515625 C-18.10667969 468.08039063 -18.10667969 468.08039063 -17.58984375 466.2734375 C-17.13952559 464.71608721 -16.68899354 463.15879877 -16.23828125 461.6015625 C-16.0165625 460.82425781 -15.79484375 460.04695313 -15.56640625 459.24609375 C-15.34726562 458.49199219 -15.128125 457.73789062 -14.90234375 456.9609375 C-14.70334473 456.26967773 -14.5043457 455.57841797 -14.29931641 454.86621094 C-13.61328125 452.8515625 -13.61328125 452.8515625 -12.5859375 450.84423828 C-5.44785205 436.2204799 -7.19062704 412.71807423 -10.1015625 397.234375 C-11.21963247 389.84316436 -11.31385386 382.31360837 -11.61328125 374.8515625 C-12.83688805 374.7770269 -12.83688805 374.7770269 -14.61328125 375.8515625 Z " fill="#FEFEFE" transform="translate(541.61328125,237.1484375)"/>
</svg>
